<svg xmlns="http://www.w3.org/2000/svg" xmlns:xlink="http://www.w3.org/1999/xlink" width="15.356" height="15.231" viewBox="0 0 15.356 15.231">
  <defs>
    <clipPath id="clip-path">
      <rect id="Rectangle_223" data-name="Rectangle 223" width="15.356" height="15.231" fill="#bfbdbd"/>
    </clipPath>
  </defs>
  <g id="Group_286" data-name="Group 286" transform="translate(0 -1)">
    <g id="Group_286-2" data-name="Group 286" transform="translate(0 1)" clip-path="url(#clip-path)">
      <path id="Path_270" data-name="Path 270" d="M14.207,12.668V6.7a1.4,1.4,0,0,0-1.4-1.4H11.272V3.667l.39-.465a1.622,1.622,0,0,0,.322-1.528A3.109,3.109,0,0,0,11.248.136.454.454,0,0,0,10.884,0a.458.458,0,0,0-.338.194c-.937,1.335-.759,2.467-.323,3.032l.417.455V5.3H7.994V3.667L8.385,3.2a1.622,1.622,0,0,0,.322-1.528A3.106,3.106,0,0,0,7.97.136.453.453,0,0,0,7.606,0a.458.458,0,0,0-.338.194c-.936,1.335-.759,2.467-.323,3.031l.417.455V5.3H4.716V3.667L5.107,3.2a1.621,1.621,0,0,0,.322-1.528A3.109,3.109,0,0,0,4.692.136a.459.459,0,0,0-.7.059c-.936,1.335-.759,2.467-.323,3.031l.417.455V5.3H2.549a1.4,1.4,0,0,0-1.4,1.4v5.971a1.285,1.285,0,0,0,.135,2.563H14.072a1.285,1.285,0,0,0,.135-2.563M10.938.749a2.914,2.914,0,0,1,.43,1.062,1.034,1.034,0,0,1-.18.974l-.245.292-.226-.246A1.885,1.885,0,0,1,10.938.749M7.66.749a2.914,2.914,0,0,1,.43,1.062,1.034,1.034,0,0,1-.18.974l-.245.292L7.438,2.83A1.886,1.886,0,0,1,7.66.749m-3.278,0a2.916,2.916,0,0,1,.43,1.062,1.034,1.034,0,0,1-.18.974l-.245.292L4.16,2.83A1.886,1.886,0,0,1,4.382.749m9.193,9.793H1.782V8.151a2.389,2.389,0,0,0,1.282.611A1.83,1.83,0,0,0,4.687,7.9a2.188,2.188,0,0,1,.249-.269,1.464,1.464,0,0,1,.259.246,3.561,3.561,0,0,0,1.078.853,1.455,1.455,0,0,0,.66.169,2.2,2.2,0,0,0,1.479-.865c.131-.137.4-.42.488-.411.187.023.4.253.6.476a1.5,1.5,0,0,0,1.111.665,1.987,1.987,0,0,0,1.148-.688,1.7,1.7,0,0,1,.614-.455c.182-.025.747.484,1.2,1.067Zm-11.792.594H13.574v1.526H1.782ZM2.549,5.93H12.807a.768.768,0,0,1,.767.767V7.721c-.384-.395-.874-.782-1.285-.726a1.948,1.948,0,0,0-.963.623c-.248.236-.529.5-.746.515-.182.012-.4-.229-.611-.46A1.746,1.746,0,0,0,8.98,7c-.4-.049-.7.266-1.022.6-.514.534-.864.839-1.4.57a2.97,2.97,0,0,1-.9-.717,1.035,1.035,0,0,0-.743-.455c-.294,0-.5.243-.714.5-.344.409-.62.695-1.063.641a2.149,2.149,0,0,1-1.358-.925V6.7a.768.768,0,0,1,.767-.767M14.072,14.6H1.285a.652.652,0,0,1,0-1.3H14.072a.652.652,0,0,1,0,1.3" transform="translate(0 0)" fill="#bfbdbd"/>
    </g>
  </g>
</svg>
