<svg xmlns="http://www.w3.org/2000/svg" width="12.242" height="15.498" viewBox="0 0 12.242 15.498">
  <g id="Group_199" data-name="Group 199" transform="translate(-1333.71 -861.171)">
    <g id="Group_198" data-name="Group 198" transform="translate(1330.009 858.846)">
      <path id="Path_229" data-name="Path 229" d="M16.005,18.988H7.35a1.073,1.073,0,0,1-.879-1.254V8.1H5.565c0-.047-.008-.076-.008-.105,0-.54,0-1.079,0-1.619a1.114,1.114,0,0,1,.025-.24,1.04,1.04,0,0,1,1.072-.819c.621,0,1.241,0,1.861,0h.169c0-.43,0-.838,0-1.246s.177-.576.569-.575l4.9,0a.477.477,0,0,1,.518.516c0,.378,0,.757,0,1.135v.167h.2c.61,0,1.22,0,1.831,0a1.021,1.021,0,0,1,1.076.934c.023.6.007,1.21.006,1.815,0,.008-.01.016-.026.041h-.875v.209q0,4.729,0,9.458c0,.081,0,.162,0,.242a1,1,0,0,1-.584.872,2.386,2.386,0,0,1-.3.1M7.433,8.1v.163q0,4.781,0,9.563c0,.149.036.2.193.2q4.054-.007,8.107,0c.157,0,.194-.049.193-.2q-.006-4.781,0-9.563c0-.053-.005-.106-.009-.163Zm9.4-.969V6.5c0-.23,0-.23-.235-.23H6.761a.457.457,0,0,0-.135,0c-.036.011-.091.047-.092.073-.007.26,0,.519,0,.784ZM13.7,4.462H9.656V5.3H13.7Z" transform="translate(-1.855 -1.165)" fill="#bfbdbd"/>
      <rect id="Rectangle_164" data-name="Rectangle 164" width="0.947" height="7.924" transform="translate(7.218 7.948)" fill="#bfbdbd"/>
      <path id="Path_230" data-name="Path 230" d="M15.131,19.846h-.957v-.171q0-3.79,0-7.578c0-.157.042-.2.193-.191.251.012.5,0,.767,0Z" transform="translate(-4.731 -3.975)" fill="#bfbdbd"/>
      <rect id="Rectangle_165" data-name="Rectangle 165" width="0.947" height="7.927" transform="translate(11.69 7.944)" fill="#bfbdbd"/>
    </g>
  </g>
</svg>
