<svg id="Group_283" data-name="Group 283" xmlns="http://www.w3.org/2000/svg" xmlns:xlink="http://www.w3.org/1999/xlink" width="14.654" height="16.475" viewBox="0 0 14.654 16.475">
  <defs>
    <clipPath id="clip-path">
      <rect id="Rectangle_221" data-name="Rectangle 221" width="14.654" height="16.475" fill="none" stroke="#bfbdbd" stroke-width="1"/>
    </clipPath>
  </defs>
  <g id="Group_283-2" data-name="Group 283" clip-path="url(#clip-path)">
    <path id="Path_251" data-name="Path 251" d="M101.607,63.539a2.5,2.5,0,1,1-2.5-2.5A2.5,2.5,0,0,1,101.607,63.539Z" transform="translate(-91.776 -57.988)" fill="none" stroke="#bfbdbd" stroke-linecap="round" stroke-linejoin="round" stroke-width="1"/>
    <path id="Path_252" data-name="Path 252" d="M46.718,18.46a1.039,1.039,0,0,1-1.7,0c-1.5-1.918-4.45-5.973-4.45-8.158a5.3,5.3,0,1,1,10.6,0C51.168,12.487,48.217,16.542,46.718,18.46Z" transform="translate(-38.54 -4.75)" fill="none" stroke="#bfbdbd" stroke-linecap="round" stroke-linejoin="round" stroke-width="1"/>
    <path id="Path_253" data-name="Path 253" d="M14.027,245.4c2.96.242,5.127,1.023,5.127,1.948,0,1.119-3.169,2.026-7.077,2.026S5,248.466,5,247.347c0-.925,2.167-1.706,5.127-1.948" transform="translate(-4.75 -233.148)" fill="none" stroke="#bfbdbd" stroke-linecap="round" stroke-linejoin="round" stroke-width="1"/>
  </g>
</svg>
