<svg id="HOME_Button" data-name="HOME Button" xmlns="http://www.w3.org/2000/svg" xmlns:xlink="http://www.w3.org/1999/xlink" width="59.577" height="66.003" viewBox="0 0 59.577 66.003">
  <defs>
    <clipPath id="clip-path">
      <rect id="Rectangle_7" data-name="Rectangle 7" width="59.577" height="66.003" fill="#414141"/>
    </clipPath>
  </defs>
  <g id="Group_13" data-name="Group 13" clip-path="url(#clip-path)">
    <path id="Path_21" data-name="Path 21" d="M48.51,17.2l-1.164,5.518a24.883,24.883,0,1,1-6.558-4.693l.95-4.954A29.856,29.856,0,1,0,48.51,17.2" transform="translate(0 -4.098)" fill="#414141"/>
    <path id="Path_22" data-name="Path 22" d="M53.058,0,51.263,9.358l-.96,5L46.095,36.293q-.9,4.271-1.107,6-.172-1.34-.686-4.053t-1.014-4.785l-1.949-8.62H35.63l-2.012,8.62q-.454,1.792-.975,4.52t-.725,4.318q-.312-2.244-1.154-6.032L28.285,24.837H22.342l5.646,22.789h7.284q2-8.963,2.269-10.225t.553-2.767q.281-1.5.405-2.517.156,1.247.492,3.1t.491,2.479l2.184,9.929h7.283l6.279-29.755,1.141-5.406L59,0Z" transform="translate(-8.664)" fill="#414141"/>
  </g>
</svg>
