<svg id="Group_190" data-name="Group 190" xmlns="http://www.w3.org/2000/svg" width="90" height="90.001" viewBox="0 0 90 90.001">
  <path id="Path_106" data-name="Path 106" d="M11.73-73.31h4.285v30H11.73Z" transform="translate(-11.73 73.31)" fill="#2b2e34"/>
  <path id="Path_107" data-name="Path 107" d="M11.73-49.85h4.285v4.285H11.73Z" transform="translate(-11.73 84.138)" fill="#2b2e34"/>
  <path id="Path_108" data-name="Path 108" d="M11.73-41.053h4.285v8.572H11.73Z" transform="translate(-11.73 88.198)" fill="#2b2e34"/>
  <path id="Path_109" data-name="Path 109" d="M11.73-32.256h4.285v8.572H11.73Z" transform="translate(-11.73 92.258)" fill="#2b2e34"/>
  <path id="Path_110" data-name="Path 110" d="M11.73-26.391h4.285V-9.247H11.73Z" transform="translate(-11.73 94.965)" fill="#2b2e34"/>
  <path id="Path_111" data-name="Path 111" d="M11.73-14.662h4.285v4.285H11.73Z" transform="translate(-11.73 100.378)" fill="#2b2e34"/>
  <path id="Path_112" data-name="Path 112" d="M14.662-73.31h4.285v4.285H14.662Z" transform="translate(-10.377 73.31)" fill="#2b2e34"/>
  <path id="Path_113" data-name="Path 113" d="M14.662-55.715h4.285v4.285H14.662Z" transform="translate(-10.377 81.431)" fill="#2b2e34"/>
  <path id="Path_114" data-name="Path 114" d="M14.662-46.918h4.285v8.572H14.662Z" transform="translate(-10.377 85.491)" fill="#2b2e34"/>
  <path id="Path_115" data-name="Path 115" d="M14.662-32.256h4.285v4.285H14.662Z" transform="translate(-10.377 92.258)" fill="#2b2e34"/>
  <path id="Path_116" data-name="Path 116" d="M14.662-14.662h4.285v4.285H14.662Z" transform="translate(-10.377 100.378)" fill="#2b2e34"/>
  <path id="Path_117" data-name="Path 117" d="M17.594-73.31h4.285v4.285H17.594Z" transform="translate(-9.024 73.31)" fill="#2b2e34"/>
  <path id="Path_118" data-name="Path 118" d="M17.594-67.445h4.285v12.857H17.594Z" transform="translate(-9.024 76.017)" fill="#2b2e34"/>
  <path id="Path_119" data-name="Path 119" d="M17.594-55.715h4.285v4.285H17.594Z" transform="translate(-9.024 81.431)" fill="#2b2e34"/>
  <path id="Path_120" data-name="Path 120" d="M17.594-43.986h4.285v12.857H17.594Z" transform="translate(-9.024 86.844)" fill="#2b2e34"/>
  <path id="Path_121" data-name="Path 121" d="M17.594-32.256h4.285v4.285H17.594Z" transform="translate(-9.024 92.258)" fill="#2b2e34"/>
  <path id="Path_122" data-name="Path 122" d="M17.594-26.391h4.285v12.857H17.594Z" transform="translate(-9.024 94.965)" fill="#2b2e34"/>
  <path id="Path_123" data-name="Path 123" d="M17.594-14.662h4.285v4.285H17.594Z" transform="translate(-9.024 100.378)" fill="#2b2e34"/>
  <path id="Path_124" data-name="Path 124" d="M20.527-73.31h4.285v4.285H20.527Z" transform="translate(-7.67 73.31)" fill="#2b2e34"/>
  <path id="Path_125" data-name="Path 125" d="M20.527-67.445h4.285v12.857H20.527Z" transform="translate(-7.67 76.017)" fill="#2b2e34"/>
  <path id="Path_126" data-name="Path 126" d="M20.527-55.715h4.285v4.285H20.527Z" transform="translate(-7.67 81.431)" fill="#2b2e34"/>
  <path id="Path_127" data-name="Path 127" d="M20.527-32.256h4.285v4.285H20.527Z" transform="translate(-7.67 92.258)" fill="#2b2e34"/>
  <path id="Path_128" data-name="Path 128" d="M20.527-26.391h4.285v12.857H20.527Z" transform="translate(-7.67 94.965)" fill="#2b2e34"/>
  <path id="Path_129" data-name="Path 129" d="M20.527-14.662h4.285v4.285H20.527Z" transform="translate(-7.67 100.378)" fill="#2b2e34"/>
  <path id="Path_130" data-name="Path 130" d="M23.459-73.31h4.285v4.285H23.459Z" transform="translate(-6.317 73.31)" fill="#2b2e34"/>
  <path id="Path_131" data-name="Path 131" d="M23.459-67.445h4.285v12.857H23.459Z" transform="translate(-6.317 76.017)" fill="#2b2e34"/>
  <path id="Path_132" data-name="Path 132" d="M23.459-55.715h4.285v4.285H23.459Z" transform="translate(-6.317 81.431)" fill="#2b2e34"/>
  <path id="Path_133" data-name="Path 133" d="M23.459-49.85h4.285v8.572H23.459Z" transform="translate(-6.317 84.138)" fill="#2b2e34"/>
  <path id="Path_134" data-name="Path 134" d="M23.459-41.053h4.285v8.572H23.459Z" transform="translate(-6.317 88.198)" fill="#2b2e34"/>
  <path id="Path_135" data-name="Path 135" d="M23.459-32.256h4.285v4.285H23.459Z" transform="translate(-6.317 92.258)" fill="#2b2e34"/>
  <path id="Path_136" data-name="Path 136" d="M23.459-26.391h4.285v12.857H23.459Z" transform="translate(-6.317 94.965)" fill="#2b2e34"/>
  <path id="Path_137" data-name="Path 137" d="M23.459-14.662h4.285v4.285H23.459Z" transform="translate(-6.317 100.378)" fill="#2b2e34"/>
  <path id="Path_138" data-name="Path 138" d="M26.391-73.31h4.285v4.285H26.391Z" transform="translate(-4.963 73.31)" fill="#2b2e34"/>
  <path id="Path_139" data-name="Path 139" d="M26.391-55.715h4.285v4.285H26.391Z" transform="translate(-4.963 81.431)" fill="#2b2e34"/>
  <path id="Path_140" data-name="Path 140" d="M26.391-38.121h4.285v4.285H26.391Z" transform="translate(-4.963 89.551)" fill="#2b2e34"/>
  <path id="Path_141" data-name="Path 141" d="M26.391-32.256h4.285v4.285H26.391Z" transform="translate(-4.963 92.258)" fill="#2b2e34"/>
  <path id="Path_142" data-name="Path 142" d="M26.391-14.662h4.285v4.285H26.391Z" transform="translate(-4.963 100.378)" fill="#2b2e34"/>
  <path id="Path_143" data-name="Path 143" d="M29.324-73.31h4.285v30H29.324Z" transform="translate(-3.61 73.31)" fill="#2b2e34"/>
  <path id="Path_144" data-name="Path 144" d="M29.324-49.85h4.285v4.285H29.324Z" transform="translate(-3.61 84.138)" fill="#2b2e34"/>
  <path id="Path_145" data-name="Path 145" d="M29.324-43.986h4.285V-39.7H29.324Z" transform="translate(-3.61 86.844)" fill="#2b2e34"/>
  <path id="Path_146" data-name="Path 146" d="M29.324-38.121h4.285v4.285H29.324Z" transform="translate(-3.61 89.551)" fill="#2b2e34"/>
  <path id="Path_147" data-name="Path 147" d="M29.324-32.256h4.285v8.572H29.324Z" transform="translate(-3.61 92.258)" fill="#2b2e34"/>
  <path id="Path_148" data-name="Path 148" d="M29.324-26.391h4.285V-9.247H29.324Z" transform="translate(-3.61 94.965)" fill="#2b2e34"/>
  <path id="Path_149" data-name="Path 149" d="M29.324-14.662h4.285v4.285H29.324Z" transform="translate(-3.61 100.378)" fill="#2b2e34"/>
  <path id="Path_150" data-name="Path 150" d="M32.256-49.85h4.285v17.144H32.256Z" transform="translate(-2.256 84.138)" fill="#2b2e34"/>
  <path id="Path_151" data-name="Path 151" d="M35.189-73.31h4.285v4.285H35.189Z" transform="translate(-0.903 73.31)" fill="#2b2e34"/>
  <path id="Path_152" data-name="Path 152" d="M35.189-64.512h4.285V-38.8H35.189Z" transform="translate(-0.903 77.371)" fill="#2b2e34"/>
  <path id="Path_153" data-name="Path 153" d="M35.189-41.053h4.285v4.285H35.189Z" transform="translate(-0.903 88.198)" fill="#2b2e34"/>
  <path id="Path_154" data-name="Path 154" d="M35.189-35.189h4.285v8.572H35.189Z" transform="translate(-0.903 90.904)" fill="#2b2e34"/>
  <path id="Path_155" data-name="Path 155" d="M35.189-26.391h4.285v4.285H35.189Z" transform="translate(-0.903 94.965)" fill="#2b2e34"/>
  <path id="Path_156" data-name="Path 156" d="M35.189-14.662h4.285v4.285H35.189Z" transform="translate(-0.903 100.378)" fill="#2b2e34"/>
  <path id="Path_157" data-name="Path 157" d="M38.121-73.31h4.285v4.285H38.121Z" transform="translate(0.45 73.31)" fill="#2b2e34"/>
  <path id="Path_158" data-name="Path 158" d="M38.121-67.445h4.285v4.285H38.121Z" transform="translate(0.45 76.017)" fill="#2b2e34"/>
  <path id="Path_159" data-name="Path 159" d="M38.121-61.58h4.285v8.572H38.121Z" transform="translate(0.45 78.724)" fill="#2b2e34"/>
  <path id="Path_160" data-name="Path 160" d="M38.121-52.783h4.285v25.714H38.121Z" transform="translate(0.45 82.784)" fill="#2b2e34"/>
  <path id="Path_161" data-name="Path 161" d="M38.121-32.256h4.285v4.285H38.121Z" transform="translate(0.45 92.258)" fill="#2b2e34"/>
  <path id="Path_162" data-name="Path 162" d="M38.121-20.527h4.285v4.285H38.121Z" transform="translate(0.45 97.671)" fill="#2b2e34"/>
  <path id="Path_163" data-name="Path 163" d="M38.121-14.662h4.285v4.285H38.121Z" transform="translate(0.45 100.378)" fill="#2b2e34"/>
  <path id="Path_164" data-name="Path 164" d="M41.053-73.31h4.285v12.857H41.053Z" transform="translate(1.804 73.31)" fill="#2b2e34"/>
  <path id="Path_165" data-name="Path 165" d="M41.053-61.58h4.285v4.285H41.053Z" transform="translate(1.804 78.724)" fill="#2b2e34"/>
  <path id="Path_166" data-name="Path 166" d="M41.053-55.715h4.285v17.144H41.053Z" transform="translate(1.804 81.431)" fill="#2b2e34"/>
  <path id="Path_167" data-name="Path 167" d="M41.053-32.256h4.285v8.572H41.053Z" transform="translate(1.804 92.258)" fill="#2b2e34"/>
  <path id="Path_168" data-name="Path 168" d="M41.053-23.459h4.285v8.572H41.053Z" transform="translate(1.804 96.318)" fill="#2b2e34"/>
  <path id="Path_169" data-name="Path 169" d="M41.053-14.662h4.285v4.285H41.053Z" transform="translate(1.804 100.378)" fill="#2b2e34"/>
  <path id="Path_170" data-name="Path 170" d="M43.986-73.31h4.285v4.285H43.986Z" transform="translate(3.157 73.31)" fill="#2b2e34"/>
  <path id="Path_171" data-name="Path 171" d="M43.986-67.445h4.285v4.285H43.986Z" transform="translate(3.157 76.017)" fill="#2b2e34"/>
  <path id="Path_172" data-name="Path 172" d="M43.986-61.58h4.285v4.285H43.986Z" transform="translate(3.157 78.724)" fill="#2b2e34"/>
  <path id="Path_173" data-name="Path 173" d="M43.986-41.053h4.285v17.142H43.986Z" transform="translate(3.157 88.198)" fill="#2b2e34"/>
  <path id="Path_174" data-name="Path 174" d="M43.986-17.594h4.285v4.285H43.986Z" transform="translate(3.157 99.025)" fill="#2b2e34"/>
  <path id="Path_175" data-name="Path 175" d="M43.986-14.662h4.285v4.285H43.986Z" transform="translate(3.157 100.378)" fill="#2b2e34"/>
  <path id="Path_176" data-name="Path 176" d="M46.918-67.445H51.2v4.285H46.918Z" transform="translate(4.511 76.017)" fill="#2b2e34"/>
  <path id="Path_177" data-name="Path 177" d="M46.918-61.58H51.2v12.857H46.918Z" transform="translate(4.511 78.724)" fill="#2b2e34"/>
  <path id="Path_178" data-name="Path 178" d="M46.918-49.85H51.2v17.144H46.918Z" transform="translate(4.511 84.138)" fill="#2b2e34"/>
  <path id="Path_179" data-name="Path 179" d="M46.918-35.189H51.2V-30.9H46.918Z" transform="translate(4.511 90.904)" fill="#2b2e34"/>
  <path id="Path_180" data-name="Path 180" d="M46.918-26.391H51.2V-9.247H46.918Z" transform="translate(4.511 94.965)" fill="#2b2e34"/>
  <path id="Path_181" data-name="Path 181" d="M49.85-49.85h4.285v4.285H49.85Z" transform="translate(5.864 84.138)" fill="#2b2e34"/>
  <path id="Path_182" data-name="Path 182" d="M49.85-38.121h4.285v4.285H49.85Z" transform="translate(5.864 89.551)" fill="#2b2e34"/>
  <path id="Path_183" data-name="Path 183" d="M49.85-29.324h4.285v4.285H49.85Z" transform="translate(5.864 93.611)" fill="#2b2e34"/>
  <path id="Path_184" data-name="Path 184" d="M49.85-26.391h4.285v12.857H49.85Z" transform="translate(5.864 94.965)" fill="#2b2e34"/>
  <path id="Path_185" data-name="Path 185" d="M52.783-73.31h4.285v30H52.783Z" transform="translate(7.217 73.31)" fill="#2b2e34"/>
  <path id="Path_186" data-name="Path 186" d="M52.783-49.85h4.285v4.285H52.783Z" transform="translate(7.217 84.138)" fill="#2b2e34"/>
  <path id="Path_187" data-name="Path 187" d="M52.783-38.121h4.285v4.285H52.783Z" transform="translate(7.217 89.551)" fill="#2b2e34"/>
  <path id="Path_188" data-name="Path 188" d="M52.783-32.256h4.285v8.572H52.783Z" transform="translate(7.217 92.258)" fill="#2b2e34"/>
  <path id="Path_189" data-name="Path 189" d="M52.783-26.391h4.285v8.572H52.783Z" transform="translate(7.217 94.965)" fill="#2b2e34"/>
  <path id="Path_190" data-name="Path 190" d="M52.783-14.662h4.285v4.285H52.783Z" transform="translate(7.217 100.378)" fill="#2b2e34"/>
  <path id="Path_191" data-name="Path 191" d="M55.715-73.31H60v4.285H55.715Z" transform="translate(8.571 73.31)" fill="#2b2e34"/>
  <path id="Path_192" data-name="Path 192" d="M55.715-55.715H60v4.285H55.715Z" transform="translate(8.571 81.431)" fill="#2b2e34"/>
  <path id="Path_193" data-name="Path 193" d="M55.715-49.85H60v4.285H55.715Z" transform="translate(8.571 84.138)" fill="#2b2e34"/>
  <path id="Path_194" data-name="Path 194" d="M55.715-38.121H60v4.285H55.715Z" transform="translate(8.571 89.551)" fill="#2b2e34"/>
  <path id="Path_195" data-name="Path 195" d="M55.715-17.594H60v4.285H55.715Z" transform="translate(8.571 99.025)" fill="#2b2e34"/>
  <path id="Path_196" data-name="Path 196" d="M58.648-73.31h4.285v4.285H58.648Z" transform="translate(9.924 73.31)" fill="#2b2e34"/>
  <path id="Path_197" data-name="Path 197" d="M58.648-67.445h4.285v12.857H58.648Z" transform="translate(9.924 76.017)" fill="#2b2e34"/>
  <path id="Path_198" data-name="Path 198" d="M58.648-55.715h4.285v4.285H58.648Z" transform="translate(9.924 81.431)" fill="#2b2e34"/>
  <path id="Path_199" data-name="Path 199" d="M58.648-49.85h4.285v17.144H58.648Z" transform="translate(9.924 84.138)" fill="#2b2e34"/>
  <path id="Path_200" data-name="Path 200" d="M58.648-35.189h4.285v12.857H58.648Z" transform="translate(9.924 90.904)" fill="#2b2e34"/>
  <path id="Path_201" data-name="Path 201" d="M58.648-26.391h4.285V-9.247H58.648Z" transform="translate(9.924 94.965)" fill="#2b2e34"/>
  <path id="Path_202" data-name="Path 202" d="M61.58-73.31h4.285v4.285H61.58Z" transform="translate(11.278 73.31)" fill="#2b2e34"/>
  <path id="Path_203" data-name="Path 203" d="M61.58-67.445h4.285v12.857H61.58Z" transform="translate(11.278 76.017)" fill="#2b2e34"/>
  <path id="Path_204" data-name="Path 204" d="M61.58-55.715h4.285v4.285H61.58Z" transform="translate(11.278 81.431)" fill="#2b2e34"/>
  <path id="Path_205" data-name="Path 205" d="M61.58-49.85h4.285v8.572H61.58Z" transform="translate(11.278 84.138)" fill="#2b2e34"/>
  <path id="Path_206" data-name="Path 206" d="M61.58-26.391h4.285v4.285H61.58Z" transform="translate(11.278 94.965)" fill="#2b2e34"/>
  <path id="Path_207" data-name="Path 207" d="M61.58-14.662h4.285v4.285H61.58Z" transform="translate(11.278 100.378)" fill="#2b2e34"/>
  <path id="Path_208" data-name="Path 208" d="M64.512-73.31H68.8v4.285H64.512Z" transform="translate(12.631 73.31)" fill="#2b2e34"/>
  <path id="Path_209" data-name="Path 209" d="M64.512-67.445H68.8v12.857H64.512Z" transform="translate(12.631 76.017)" fill="#2b2e34"/>
  <path id="Path_210" data-name="Path 210" d="M64.512-55.715H68.8v4.285H64.512Z" transform="translate(12.631 81.431)" fill="#2b2e34"/>
  <path id="Path_211" data-name="Path 211" d="M64.512-46.918H68.8v4.285H64.512Z" transform="translate(12.631 85.491)" fill="#2b2e34"/>
  <path id="Path_212" data-name="Path 212" d="M64.512-23.459H68.8v8.572H64.512Z" transform="translate(12.631 96.318)" fill="#2b2e34"/>
  <path id="Path_213" data-name="Path 213" d="M67.445-73.31H71.73v4.285H67.445Z" transform="translate(13.985 73.31)" fill="#2b2e34"/>
  <path id="Path_214" data-name="Path 214" d="M67.445-55.715H71.73v4.285H67.445Z" transform="translate(13.985 81.431)" fill="#2b2e34"/>
  <path id="Path_215" data-name="Path 215" d="M67.445-46.918H71.73v8.572H67.445Z" transform="translate(13.985 85.491)" fill="#2b2e34"/>
  <path id="Path_216" data-name="Path 216" d="M67.445-38.121H71.73v12.857H67.445Z" transform="translate(13.985 89.551)" fill="#2b2e34"/>
  <path id="Path_217" data-name="Path 217" d="M67.445-26.391H71.73v8.572H67.445Z" transform="translate(13.985 94.965)" fill="#2b2e34"/>
  <path id="Path_218" data-name="Path 218" d="M70.377-73.31h4.285v30H70.377Z" transform="translate(15.338 73.31)" fill="#2b2e34"/>
  <path id="Path_219" data-name="Path 219" d="M70.377-49.85h4.285v4.285H70.377Z" transform="translate(15.338 84.138)" fill="#2b2e34"/>
  <path id="Path_220" data-name="Path 220" d="M70.377-41.053h4.285V-28.2H70.377Z" transform="translate(15.338 88.198)" fill="#2b2e34"/>
  <path id="Path_221" data-name="Path 221" d="M70.377-23.459h4.285v4.285H70.377Z" transform="translate(15.338 96.318)" fill="#2b2e34"/>
  <path id="Path_222" data-name="Path 222" d="M70.377-14.662h4.285v4.285H70.377Z" transform="translate(15.338 100.378)" fill="#2b2e34"/>
</svg>
