<svg xmlns="http://www.w3.org/2000/svg" xmlns:xlink="http://www.w3.org/1999/xlink" width="22.512" height="19.281" viewBox="0 0 22.512 19.281">
  <defs>
    <clipPath id="clip-path">
      <rect id="Rectangle_222" data-name="Rectangle 222" width="22.512" height="19.281" transform="translate(0 0)" fill="#bfbdbd"/>
    </clipPath>
  </defs>
  <g id="Group_285" data-name="Group 285" clip-path="url(#clip-path)">
    <path id="Path_254" data-name="Path 254" d="M834.8,3A.3.3,0,0,1,834.732,3a.283.283,0,0,1-.2-.344l.634-2.437a.281.281,0,0,1,.545.142l-.633,2.437A.281.281,0,0,1,834.8,3" transform="translate(-822.407 -0.005)" fill="#bfbdbd"/>
    <path id="Path_255" data-name="Path 255" d="M632.229,4.84a.282.282,0,0,1-.271-.206l-.668-2.428a.281.281,0,1,1,.541-.15l.671,2.427a.283.283,0,0,1-.2.346.255.255,0,0,1-.075.01" transform="translate(-622.116 -1.823)" fill="#bfbdbd"/>
    <path id="Path_256" data-name="Path 256" d="M420.347,129.227a.281.281,0,0,1-.2-.081l-1.794-1.767a.281.281,0,0,1,.395-.4l1.794,1.767a.282.282,0,0,1-.2.483" transform="translate(-412.2 -125.055)" fill="#bfbdbd"/>
    <path id="Path_257" data-name="Path 257" d="M971.528,124.222a.281.281,0,0,1-.2-.479l1.766-1.794a.282.282,0,0,1,.4.395l-1.768,1.795a.278.278,0,0,1-.2.084" transform="translate(-957.147 -120.096)" fill="#bfbdbd"/>
    <path id="Path_258" data-name="Path 258" d="M194.445,391.979a.273.273,0,0,1-.261-.193c-.3-.991-1.859-1.12-1.874-1.122a.272.272,0,0,1-.241-.346c1.064-3.748,1.809-6.438,1.816-6.465a.272.272,0,0,1,.327-.192,9.686,9.686,0,0,0,3.591-.328.272.272,0,0,1,.145.525,10.857,10.857,0,0,1-3.6.383c-.2.719-.826,2.969-1.665,5.925a2.478,2.478,0,0,1,2.028,1.461.273.273,0,0,1-.261.352" transform="translate(-189.271 -377.758)" fill="#bfbdbd"/>
    <path id="Path_259" data-name="Path 259" d="M423.47,971.093a1.028,1.028,0,0,1-.686-.261,1.225,1.225,0,0,1-.047-1.774,4.671,4.671,0,0,1,.742-.809,1.44,1.44,0,0,1,.918-.387,1.06,1.06,0,0,1,.622.2,1.042,1.042,0,0,1,.471.8,2.6,2.6,0,0,1-1.1,1.85,1.443,1.443,0,0,1-.916.378m.926-2.686a.938.938,0,0,0-.548.242l-.025.022a4.092,4.092,0,0,0-.65.714c-.181.241-.427.7-.034,1.034a.491.491,0,0,0,.331.129.913.913,0,0,0,.55-.236c.834-.758.938-1.212.926-1.414a.5.5,0,0,0-.242-.387.518.518,0,0,0-.307-.1" transform="translate(-416.252 -953.813)" fill="#bfbdbd"/>
    <path id="Path_260" data-name="Path 260" d="M536.768,1069.172a1.121,1.121,0,0,1-.683-.25,1.16,1.16,0,0,1-.059-1.709,4.4,4.4,0,0,1,.706-.769,1.185,1.185,0,0,1,.753-.3.982.982,0,0,1,.653.256,1.092,1.092,0,0,1,.418.828,2.285,2.285,0,0,1-.947,1.576,1.238,1.238,0,0,1-.84.371m.716-2.487a.656.656,0,0,0-.388.164l-.022.019a3.847,3.847,0,0,0-.613.672c-.11.147-.44.649-.047.948.28.213.523.184.827-.091.641-.583.772-.956.769-1.166a.564.564,0,0,0-.229-.422.447.447,0,0,0-.3-.124" transform="translate(-527.908 -1050.664)" fill="#bfbdbd"/>
    <path id="Path_261" data-name="Path 261" d="M313.876,900.949a.988.988,0,0,1-.653-.251,1.144,1.144,0,0,1-.047-1.663,4.285,4.285,0,0,1,.689-.75,1.138,1.138,0,0,1,.722-.275,1.078,1.078,0,0,1,.634.214.984.984,0,0,1,.44.755,2.219,2.219,0,0,1-.934,1.61,1.331,1.331,0,0,1-.849.36m.71-2.394a.6.6,0,0,0-.362.139l-.019.016a3.734,3.734,0,0,0-.594.652c-.163.216-.384.624-.035.921a.453.453,0,0,0,.3.121.79.79,0,0,0,.482-.218c.682-.62.767-1,.757-1.174a.446.446,0,0,0-.212-.343.538.538,0,0,0-.317-.113" transform="translate(-308.302 -884.975)" fill="#bfbdbd"/>
    <path id="Path_262" data-name="Path 262" d="M643.873,1157.579a.86.86,0,0,1-.526-.192.971.971,0,0,1-.151-1.381,3.413,3.413,0,0,1,.5-.644.95.95,0,0,1,.658-.3.849.849,0,0,1,.494.165.9.9,0,0,1,.4.645,1.805,1.805,0,0,1-.648,1.328,1.046,1.046,0,0,1-.732.377m.483-1.969a.416.416,0,0,0-.261.125l-.022.023a2.912,2.912,0,0,0-.417.54c-.182.286-.174.507.021.656a.329.329,0,0,0,.2.081c.143,0,.287-.154.334-.2.467-.5.516-.778.5-.9a.345.345,0,0,0-.174-.255.314.314,0,0,0-.181-.066" transform="translate(-633.647 -1138.298)" fill="#bfbdbd"/>
    <path id="Path_263" data-name="Path 263" d="M757.544,1088.178h-.015a1.636,1.636,0,0,1-1.132-.695.272.272,0,0,1,.443-.317,1.114,1.114,0,0,0,.7.467.613.613,0,0,0,.46-.289c.385-.5-.726-1.381-1.389-1.906-.1-.079-.193-.153-.276-.221a.272.272,0,1,1,.345-.422c.08.066.171.138.269.215.874.692,2.194,1.737,1.484,2.665a1.108,1.108,0,0,1-.888.5" transform="translate(-745.257 -1068.988)" fill="#bfbdbd"/>
    <path id="Path_264" data-name="Path 264" d="M841.519,984.781a1.239,1.239,0,0,1-.942-.428.272.272,0,0,1,.41-.359.741.741,0,0,0,.835.185.749.749,0,0,0,.513-.677c-.011-.3-1.186-1.419-2.153-2.144a.272.272,0,1,1,.327-.436c.1.073,2.371,1.786,2.371,2.58a1.282,1.282,0,0,1-.866,1.187,1.4,1.4,0,0,1-.494.092" transform="translate(-827.878 -966.629)" fill="#bfbdbd"/>
    <path id="Path_265" data-name="Path 265" d="M918.349,878.931a1.127,1.127,0,0,1-.793-.328.273.273,0,0,1,.379-.391.7.7,0,0,0,.989-.084c.268-.25.435-.655.218-.913A27.566,27.566,0,0,0,916.527,875a.272.272,0,0,1,.329-.434,27.084,27.084,0,0,1,2.7,2.294,1.213,1.213,0,0,1-.263,1.663,1.4,1.4,0,0,1-.946.4" transform="translate(-903.117 -861.82)" fill="#bfbdbd"/>
    <path id="Path_266" data-name="Path 266" d="M1075.719,918.768a.94.94,0,0,1-.36-.068,4.015,4.015,0,0,1-.876-.606.272.272,0,0,1,.363-.407,3.533,3.533,0,0,0,.722.509.823.823,0,0,0,.845-.364.772.772,0,0,0-.115-1.031.272.272,0,1,1,.411-.357,1.314,1.314,0,0,1,.146,1.706,1.46,1.46,0,0,1-1.135.617" transform="translate(-1058.796 -903.049)" fill="#bfbdbd"/>
    <path id="Path_267" data-name="Path 267" d="M1195.528,322.517a.273.273,0,0,1-.263-.2l-2-7.5a.273.273,0,0,1,.193-.333l2.649-.706a.272.272,0,0,1,.333.193l2,7.5a.272.272,0,0,1-.193.333l-2.649.705a.275.275,0,0,1-.07.009m-1.663-7.579,1.857,6.973,2.122-.565-1.856-6.973Z" transform="translate(-1175.937 -309.212)" fill="#bfbdbd"/>
    <path id="Path_268" data-name="Path 268" d="M2.911,322.225a.272.272,0,0,1-.074-.01L.2,321.47a.272.272,0,0,1-.188-.336l2.109-7.469a.272.272,0,0,1,.336-.188l2.638.745a.273.273,0,0,1,.188.336l-2.11,7.469a.273.273,0,0,1-.262.2m-2.3-1.206,2.114.6,1.961-6.944-2.114-.6Z" transform="translate(0 -308.916)" fill="#bfbdbd"/>
    <path id="Path_269" data-name="Path 269" d="M427.841,357.079a.272.272,0,0,1-.174-.063l-6.085-5.065a.783.783,0,0,0-.5-.167,3.542,3.542,0,0,0-1.81.951c-.085.068-.159.128-.222.175a3.452,3.452,0,0,1-1.8.673,1.049,1.049,0,0,1-.948-.472c-.725-1.14,1.676-3.889,2.576-4.471a2.7,2.7,0,0,1,1.494-.353,16.272,16.272,0,0,1,3.1.46,17.243,17.243,0,0,0,3.273.482,3.729,3.729,0,0,0,1.047-.128.272.272,0,0,1,.34.192l1.707,6.431a.273.273,0,0,1-.151.318,8.134,8.134,0,0,0-1.659.959.272.272,0,0,1-.191.078m-6.756-5.84a1.331,1.331,0,0,1,.839.287l5.916,4.924a9.313,9.313,0,0,1,1.417-.808l-1.58-5.952a4.685,4.685,0,0,1-.929.083,17.6,17.6,0,0,1-3.385-.493,15.94,15.94,0,0,0-2.984-.449,2.2,2.2,0,0,0-1.2.265c-1.008.652-2.809,3.1-2.412,3.722a.505.505,0,0,0,.488.22,2.932,2.932,0,0,0,1.468-.564c.059-.044.129-.1.208-.165a3.919,3.919,0,0,1,2.152-1.072" transform="translate(-410.134 -343.232)" fill="#bfbdbd"/>
  </g>
</svg>
